<svg xmlns="http://www.w3.org/2000/svg" version="1.1" xmlns:xlink="http://www.w3.org/1999/xlink" xmlns:svgjs="http://svgjs.com/svgjs" width="1000" height="1000"><rect width="1000" height="1000" rx="250" ry="250" fill="#ffffff"></rect><g transform="matrix(2.9851824944301346,0,0,2.9851824944301346,222.19208329168373,199.99995508521863)"><svg xmlns="http://www.w3.org/2000/svg" version="1.1" xmlns:xlink="http://www.w3.org/1999/xlink" xmlns:svgjs="http://svgjs.com/svgjs" width="186.124451" height="200.992737"><svg width="186.124451" height="200.992737" viewBox="0 0 186.124 200.993" fill="none" xmlns="http://www.w3.org/2000/svg" xmlns:xlink="http://www.w3.org/1999/xlink">
	<desc>
			Created with Pixso.
	</desc>
	<defs></defs>
	<path id="icon" d="M88.6429 0.675049C91.4813 0.321411 94.403 0.175049 97.2545 0.0366211C98.708 0.0179443 100.232 -0.0709534 101.76 0.122498C103.285 0.315582 104.814 0.790497 106.188 1.3161C107.818 1.94873 109.525 2.98627 110.791 4.26819C113.302 6.40771 115.401 9.12714 116.402 12.3078C117.062 14.5527 117.343 16.9053 117.27 19.2425C116.948 22.6912 115.678 26.0916 113.377 28.7121C112.721 29.4524 112.094 30.2256 111.341 30.8736C110.137 31.906 108.738 32.6726 107.349 33.4194C103.576 35.1328 99.3539 34.6825 95.342 35.113C94.1904 35.2888 93.1695 35.2623 92.0245 35.4863C87.4073 36.2134 82.6198 36.9604 78.2526 38.6738C73.1616 40.6837 68.167 43.0494 63.6923 46.2345C60.5425 48.4048 57.5869 50.7961 54.9306 53.5573C52.77 55.5123 50.9948 57.8 49.1545 60.0494C46.6693 63.3004 44.3727 66.6695 42.5938 70.362C38.4415 78.3774 36.253 87.2188 35.6103 96.2249C35.1935 102.334 35.7288 108.381 37.1129 114.338C38.1964 118.519 39.3768 122.605 41.1864 126.53C43.9765 132.147 47.131 137.621 51.2679 142.357C52.5094 143.657 53.7515 145.163 55.0631 146.397C56.7583 148.134 58.5883 149.673 60.479 151.139C62.3845 152.618 64.3521 154.021 66.4063 155.27C70.4949 157.754 74.8284 159.826 79.4128 161.42C82.1831 162.206 84.9287 163.268 87.789 163.673C92.301 164.503 96.9147 164.946 101.495 164.935C107.415 164.845 113.334 163.717 119.092 162.197C123.055 161.226 126.458 159.68 129.903 157.867C133.34 156.058 136.821 153.983 140.025 151.486C142.15 149.731 144.121 148.168 146.057 146.208C148.453 143.816 150.752 140.955 153.092 138.515C155.341 136.364 158.554 135.189 161.611 134.538C163.577 134.005 165.638 134.136 167.643 134.319C170.282 134.804 172.879 135.696 175.097 137.236C179.378 140.272 181.989 145.363 182.427 150.552C182.517 152.955 182.519 155.577 181.66 157.806C180.859 159.91 179.66 162.014 178.304 163.782C176.714 165.731 174.552 167.83 172.782 169.621C170.663 172.074 168.681 173.995 166.407 176.295C164.665 177.712 162.79 179.1 161.025 180.486C157.881 183.065 154.154 185.429 150.686 187.54C146.497 189.965 142.391 192.181 137.818 193.807C136.412 194.444 135.003 194.932 133.538 195.41C131.112 196.177 128.658 197.07 126.184 197.661C123.87 198.261 121.532 198.856 119.179 199.245C115.985 199.717 113.003 200.411 109.778 200.56C105.244 200.553 100.098 201.274 95.5754 200.87C89.9272 200.285 84.1076 199.865 78.5669 198.591C73.149 197.326 67.8881 195.457 62.6413 193.617C59.5419 192.347 56.3286 190.626 53.284 189.231C50.3184 187.75 47.0345 185.518 44.2225 183.765C39.7873 181.076 35.8801 177.403 31.9757 173.998C30.0323 172.217 27.8539 169.884 26.0245 167.986C20.9883 162.192 16.158 156.172 12.655 149.314C10.3277 144.816 7.97482 140.085 6.22662 135.334C3.19745 126.361 0.970963 116.727 0.249313 107.264C-0.244217 101.997 0.0883636 96.5148 0.44368 91.2429C1.20045 82.5904 3.20442 73.9096 6.18755 65.7448C9.28474 57.2263 13.5021 49.2726 18.8257 41.9294C21.0245 38.9863 22.9261 36.7042 25.0736 34.0792C25.9794 33.1588 27.1011 31.8935 28.0245 30.9863C29.2572 29.5123 30.8447 28.2032 32.1564 26.8062C37.3395 21.8397 43.1998 17.8932 49.2253 14.0294C52.444 12.195 55.5424 10.5067 58.6783 9.0697C61.7473 7.66339 64.8672 6.41577 68.1111 5.31409C72.7503 3.89728 73.0245 3.48627 78.0245 2.48627C78.8032 2.383 82.9152 1.46191 83.6961 1.38062C84.978 1.17358 87.3663 0.756348 88.6429 0.675049Z" fill-rule="evenodd" fill="#2BEA85"></path>
	<path id="icon" d="M59.545 78.3532C59.545 75.833 60.0208 73.428 60.8844 71.2296C61.7881 68.9293 63.1162 66.855 64.7681 65.1115C68.0751 61.6208 72.6795 59.4557 77.7713 59.4557C77.7713 59.4557 80.2207 59.584 81.3905 59.8284C82.5929 60.0795 83.7524 60.4534 84.8564 60.9368C87.0918 61.9156 89.0995 63.3435 90.7745 65.1115C94.005 68.5212 95.9976 73.196 95.9976 78.3532C95.9976 88.7899 87.837 97.2507 77.7713 97.2507C67.7056 97.2507 59.545 88.7899 59.545 78.3532Z" fill-rule="evenodd" fill="#FEBA37"></path>
	<path id="icon" d="M89.6374 64.0267L110.782 86.3952L125.375 101.832L95.9135 124.662L63.5061 90.0692L89.6374 64.0267Z" fill-rule="evenodd" fill="#FEBA37"></path>
	<path id="icon" d="M167.815 34.918C177.881 34.8704 186.079 43.2928 186.124 53.7291C186.171 64.1653 178.047 72.6649 167.981 72.7125C157.915 72.7602 149.718 64.3378 149.672 53.9016C149.626 43.4653 157.749 34.9657 167.815 34.918Z" fill-rule="evenodd" fill="#A080FE"></path>
	<path id="icon" d="M181.769 66.0528L126.1 126.743L110.782 86.3952L155.45 40.0117L181.769 66.0528Z" fill-rule="evenodd" fill="#A080FE"></path>
	<path id="icon" d="M110.782 86.3952L126.1 126.743L125.375 101.832L110.782 86.3952Z" fill-rule="evenodd" fill="#A080FE"></path>
	<path id="icon" d="M93.236 114.716C93.236 109.481 94.6513 105.293 97.9306 101.832C97.9306 101.832 111.282 91.8952 110.782 86.3952C110.782 86.3952 122.018 98.2882 125.375 101.832C128.654 105.293 130.241 109.481 130.241 114.716C130.241 125.311 121.957 133.9 111.738 133.9C101.52 133.9 93.236 125.311 93.236 114.716Z" fill-rule="evenodd" fill="#0885FE"></path>
	<path id="icon" d="M125.375 101.832L97.9306 101.832L103.177 94.96L110.782 86.3952L119.463 94.96L125.375 101.832Z" fill-rule="evenodd" fill="#0885FE"></path>
</svg></svg></g></svg>